<svg width="70" height="70" viewBox="0 0 70 70" fill="none" xmlns="http://www.w3.org/2000/svg">
<path d="M51.2399 45.2589C48.012 45.2589 45.2952 42.6874 45.2952 39.3394C45.2952 36.0981 47.8505 33.4464 51.2668 33.4464C54.683 33.4464 57.2387 36.0981 57.2387 39.3394C57.2387 42.6874 54.5216 45.2589 51.2399 45.2589ZM29.6545 40.732L25.2966 29.4285H21.9613L17.5764 40.732L13.1916 29.4285H8L15.6665 49.3035H19.0021L23.6021 37.4643L28.2289 49.3035H31.5645L39.2041 29.4285H34.0393L29.6545 40.732ZM51.2668 28.6785C49.0342 28.6785 47.0165 29.3482 45.2952 30.5001V20H40.5337V39.3661C40.5337 45.2589 45.3488 50 51.2399 50C57.1578 50 62 45.2856 62 39.3124C62 33.3929 57.2387 28.6785 51.2668 28.6785Z" fill="url(#paint0_linear_3_3)"/>
<defs>
<linearGradient id="paint0_linear_3_3" x1="35" y1="20" x2="35" y2="50" gradientUnits="userSpaceOnUse">
<stop stop-color="#AF52DE"/>
<stop offset="1" stop-color="#6D26C7"/>
</linearGradient>
</defs>
</svg>
