<svg width="55" height="55" viewBox="0 0 55 55" fill="none" xmlns="http://www.w3.org/2000/svg">
<circle cx="27.5" cy="27.5" r="26" fill="#C850F0" stroke="white" stroke-width="3"/>
<path d="M39.6311 35.3651C37.1204 35.3651 35.0073 33.3937 35.0073 30.8269C35.0073 28.3419 36.9948 26.3089 39.652 26.3089C42.309 26.3089 44.2968 28.3419 44.2968 30.8269C44.2968 33.3937 42.1835 35.3651 39.6311 35.3651ZM22.8424 31.8945L19.4529 23.2285H16.8588L13.4483 31.8945L10.0379 23.2285H6L11.9628 38.466H14.5572L18.135 29.3893L21.7336 38.466H24.3279L30.2698 23.2285H26.2528L22.8424 31.8945ZM39.652 22.6535C37.9155 22.6535 36.3462 23.167 35.0073 24.0501V16H31.304V30.8474C31.304 35.3651 35.0491 39 39.6311 39C44.2339 39 48 35.3856 48 30.8062C48 26.2679 44.2968 22.6535 39.652 22.6535Z" fill="white"/>
</svg>
