<svg width="43" height="24" viewBox="0 0 43 24" fill="none" xmlns="http://www.w3.org/2000/svg">
<path d="M34.4318 20.2071C31.8614 20.2071 29.698 18.1499 29.698 15.4715C29.698 12.8785 31.7328 10.7571 34.4532 10.7571C37.1735 10.7571 39.2086 12.8785 39.2086 15.4715C39.2086 18.1499 37.045 20.2071 34.4318 20.2071ZM17.2434 16.5856L13.7732 7.54278H11.1173L7.62567 16.5856L4.13409 7.54278H0L6.10478 23.4428H8.76095L12.4239 13.9714L16.1082 23.4428H18.7643L24.8477 7.54278H20.735L17.2434 16.5856ZM34.4532 6.94282C32.6754 6.94282 31.0687 7.47858 29.698 8.40009V0H25.9065V15.4929C25.9065 20.2071 29.7407 24 34.4318 24C39.1442 24 43 20.2285 43 15.4499C43 10.7143 39.2086 6.94282 34.4532 6.94282Z" fill="url(#paint0_linear_4012_77526)"/>
<defs>
<linearGradient id="paint0_linear_4012_77526" x1="0" y1="24" x2="20.4272" y2="-12.5988" gradientUnits="userSpaceOnUse">
<stop stop-color="#AF52DE"/>
<stop offset="1" stop-color="#6D26C7"/>
</linearGradient>
</defs>
</svg>
